<?xml version="1.0" encoding="UTF-8"?>
<svg id="Layer_1" xmlns="http://www.w3.org/2000/svg" xmlns:xlink="http://www.w3.org/1999/xlink" version="1.1" viewBox="0 0 164 36">
  <!-- Generator: Adobe Illustrator 29.3.1, SVG Export Plug-In . SVG Version: 2.1.0 Build 151)  -->
  <defs>
    <style>
      .st0 {
        fill: url(#linear-gradient2);
      }

      .st1 {
        fill: url(#linear-gradient1);
      }

      .st2 {
        fill: url(#linear-gradient9);
      }

      .st3 {
        fill: url(#linear-gradient3);
      }

      .st4 {
        fill: url(#linear-gradient6);
      }

      .st5 {
        fill: url(#linear-gradient8);
      }

      .st6 {
        fill: url(#linear-gradient7);
      }

      .st7 {
        fill: url(#linear-gradient5);
      }

      .st8 {
        fill: url(#linear-gradient4);
      }

      .st9 {
        fill: url(#linear-gradient18);
      }

      .st10 {
        fill: url(#linear-gradient13);
      }

      .st11 {
        fill: url(#linear-gradient12);
      }

      .st12 {
        fill: url(#linear-gradient15);
      }

      .st13 {
        fill: url(#linear-gradient16);
      }

      .st14 {
        fill: url(#linear-gradient11);
      }

      .st15 {
        fill: url(#linear-gradient10);
      }

      .st16 {
        fill: url(#linear-gradient17);
      }

      .st17 {
        fill: url(#linear-gradient14);
      }

      .st18 {
        fill: url(#linear-gradient19);
      }

      .st19 {
        fill: url(#linear-gradient22);
      }

      .st20 {
        fill: url(#linear-gradient21);
      }

      .st21 {
        fill: url(#linear-gradient20);
      }

      .st22 {
        fill: url(#linear-gradient);
      }

      .st23 {
        isolation: isolate;
      }

      .st24 {
        fill: #fff;
      }
    </style>
    <linearGradient id="linear-gradient" x1="8.4" y1="-777.5" x2="21.9" y2="-777.5" gradientTransform="translate(0 -770.1) scale(1 -1)" gradientUnits="userSpaceOnUse">
      <stop offset="0" stop-color="#cce0f4"/>
      <stop offset="0" stop-color="#c2dcf2"/>
      <stop offset=".2" stop-color="#a9d2ee"/>
      <stop offset=".3" stop-color="#7fc2e7"/>
      <stop offset=".5" stop-color="#46abdd"/>
      <stop offset=".6" stop-color="#1e9cd7"/>
      <stop offset=".9" stop-color="#0075be"/>
      <stop offset="1" stop-color="#005b97"/>
    </linearGradient>
    <linearGradient id="linear-gradient1" x1=".7" y1="-778.8" x2="21.7" y2="-778.8" gradientTransform="translate(0 -770.1) scale(1 -1)" gradientUnits="userSpaceOnUse">
      <stop offset="0" stop-color="#cce0f4"/>
      <stop offset="0" stop-color="#c2dcf2"/>
      <stop offset=".2" stop-color="#a9d2ee"/>
      <stop offset=".3" stop-color="#7fc2e7"/>
      <stop offset=".5" stop-color="#46abdd"/>
      <stop offset=".6" stop-color="#1e9cd7"/>
      <stop offset=".9" stop-color="#0075be"/>
      <stop offset="1" stop-color="#005b97"/>
    </linearGradient>
    <linearGradient id="linear-gradient2" x1="2" y1="-781.8" x2="21.1" y2="-781.8" gradientTransform="translate(0 -770.1) scale(1 -1)" gradientUnits="userSpaceOnUse">
      <stop offset="0" stop-color="#cce0f4"/>
      <stop offset="0" stop-color="#c2dcf2"/>
      <stop offset=".2" stop-color="#a9d2ee"/>
      <stop offset=".3" stop-color="#7fc2e7"/>
      <stop offset=".5" stop-color="#46abdd"/>
      <stop offset=".6" stop-color="#1e9cd7"/>
      <stop offset=".9" stop-color="#0075be"/>
      <stop offset="1" stop-color="#005b97"/>
    </linearGradient>
    <linearGradient id="linear-gradient3" x1="5.3" y1="-786.1" x2="20.2" y2="-786.1" gradientTransform="translate(0 -770.1) scale(1 -1)" gradientUnits="userSpaceOnUse">
      <stop offset="0" stop-color="#cce0f4"/>
      <stop offset="0" stop-color="#c2dcf2"/>
      <stop offset=".2" stop-color="#a9d2ee"/>
      <stop offset=".3" stop-color="#7fc2e7"/>
      <stop offset=".5" stop-color="#46abdd"/>
      <stop offset=".6" stop-color="#1e9cd7"/>
      <stop offset=".9" stop-color="#0075be"/>
      <stop offset="1" stop-color="#005b97"/>
    </linearGradient>
    <linearGradient id="linear-gradient4" x1="9.9" y1="-789" x2="21.5" y2="-789" gradientTransform="translate(0 -770.1) scale(1 -1)" gradientUnits="userSpaceOnUse">
      <stop offset="0" stop-color="#cce0f4"/>
      <stop offset="0" stop-color="#c2dcf2"/>
      <stop offset=".2" stop-color="#a9d2ee"/>
      <stop offset=".3" stop-color="#7fc2e7"/>
      <stop offset=".5" stop-color="#46abdd"/>
      <stop offset=".6" stop-color="#1e9cd7"/>
      <stop offset=".9" stop-color="#0075be"/>
      <stop offset="1" stop-color="#005b97"/>
    </linearGradient>
    <linearGradient id="linear-gradient5" x1="14.3" y1="-790.3" x2="21.7" y2="-790.3" gradientTransform="translate(0 -770.1) scale(1 -1)" gradientUnits="userSpaceOnUse">
      <stop offset="0" stop-color="#cce0f4"/>
      <stop offset="0" stop-color="#c2dcf2"/>
      <stop offset=".2" stop-color="#a9d2ee"/>
      <stop offset=".3" stop-color="#7fc2e7"/>
      <stop offset=".5" stop-color="#46abdd"/>
      <stop offset=".6" stop-color="#1e9cd7"/>
      <stop offset=".9" stop-color="#0075be"/>
      <stop offset="1" stop-color="#005b97"/>
    </linearGradient>
    <linearGradient id="linear-gradient6" x1="7.2" y1="-792.2" x2="15.6" y2="-792.2" gradientTransform="translate(0 -770.1) scale(1 -1)" gradientUnits="userSpaceOnUse">
      <stop offset="0" stop-color="#cce0f4"/>
      <stop offset="0" stop-color="#c2dcf2"/>
      <stop offset=".2" stop-color="#a9d2ee"/>
      <stop offset=".3" stop-color="#7fc2e7"/>
      <stop offset=".5" stop-color="#46abdd"/>
      <stop offset=".6" stop-color="#1e9cd7"/>
      <stop offset=".9" stop-color="#0075be"/>
      <stop offset="1" stop-color="#005b97"/>
    </linearGradient>
    <linearGradient id="linear-gradient7" x1="4.9" y1="-793.9" x2="13.9" y2="-793.9" gradientTransform="translate(0 -770.1) scale(1 -1)" gradientUnits="userSpaceOnUse">
      <stop offset="0" stop-color="#cce0f4"/>
      <stop offset="0" stop-color="#c2dcf2"/>
      <stop offset=".2" stop-color="#a9d2ee"/>
      <stop offset=".3" stop-color="#7fc2e7"/>
      <stop offset=".5" stop-color="#46abdd"/>
      <stop offset=".6" stop-color="#1e9cd7"/>
      <stop offset=".9" stop-color="#0075be"/>
      <stop offset="1" stop-color="#005b97"/>
    </linearGradient>
    <linearGradient id="linear-gradient8" x1="12.9" y1="-801.5" x2="17.9" y2="-801.5" gradientTransform="translate(0 -770.1) scale(1 -1)" gradientUnits="userSpaceOnUse">
      <stop offset="0" stop-color="#cce0f4"/>
      <stop offset="0" stop-color="#c2dcf2"/>
      <stop offset=".2" stop-color="#a9d2ee"/>
      <stop offset=".3" stop-color="#7fc2e7"/>
      <stop offset=".5" stop-color="#46abdd"/>
      <stop offset=".6" stop-color="#1e9cd7"/>
      <stop offset=".9" stop-color="#0075be"/>
      <stop offset="1" stop-color="#005b97"/>
    </linearGradient>
    <linearGradient id="linear-gradient9" x1="15.9" y1="-801.3" x2="19.5" y2="-801.3" gradientTransform="translate(0 -770.1) scale(1 -1)" gradientUnits="userSpaceOnUse">
      <stop offset="0" stop-color="#cce0f4"/>
      <stop offset="0" stop-color="#c2dcf2"/>
      <stop offset=".2" stop-color="#a9d2ee"/>
      <stop offset=".3" stop-color="#7fc2e7"/>
      <stop offset=".5" stop-color="#46abdd"/>
      <stop offset=".6" stop-color="#1e9cd7"/>
      <stop offset=".9" stop-color="#0075be"/>
      <stop offset="1" stop-color="#005b97"/>
    </linearGradient>
    <linearGradient id="linear-gradient10" x1="18.4" y1="-801" x2="20.3" y2="-801" gradientTransform="translate(0 -770.1) scale(1 -1)" gradientUnits="userSpaceOnUse">
      <stop offset="0" stop-color="#cce0f4"/>
      <stop offset="0" stop-color="#c2dcf2"/>
      <stop offset=".2" stop-color="#a9d2ee"/>
      <stop offset=".3" stop-color="#7fc2e7"/>
      <stop offset=".5" stop-color="#46abdd"/>
      <stop offset=".6" stop-color="#1e9cd7"/>
      <stop offset=".9" stop-color="#0075be"/>
      <stop offset="1" stop-color="#005b97"/>
    </linearGradient>
    <linearGradient id="linear-gradient11" x1="17.7" y1="-793.5" x2="27.9" y2="-793.5" gradientTransform="translate(0 -770.1) scale(1 -1)" gradientUnits="userSpaceOnUse">
      <stop offset="0" stop-color="#cce0f4"/>
      <stop offset="0" stop-color="#c2dcf2"/>
      <stop offset=".2" stop-color="#a9d2ee"/>
      <stop offset=".3" stop-color="#7fc2e7"/>
      <stop offset=".5" stop-color="#46abdd"/>
      <stop offset=".6" stop-color="#1e9cd7"/>
      <stop offset=".9" stop-color="#0075be"/>
      <stop offset="1" stop-color="#005b97"/>
    </linearGradient>
    <linearGradient id="linear-gradient12" x1="21.8" y1="-792.3" x2="29.2" y2="-792.3" gradientTransform="translate(0 -770.1) scale(1 -1)" gradientUnits="userSpaceOnUse">
      <stop offset="0" stop-color="#cce0f4"/>
      <stop offset="0" stop-color="#c2dcf2"/>
      <stop offset=".2" stop-color="#a9d2ee"/>
      <stop offset=".3" stop-color="#7fc2e7"/>
      <stop offset=".5" stop-color="#46abdd"/>
      <stop offset=".6" stop-color="#1e9cd7"/>
      <stop offset=".9" stop-color="#0075be"/>
      <stop offset="1" stop-color="#005b97"/>
    </linearGradient>
    <linearGradient id="linear-gradient13" x1="27.7" y1="-786.1" x2="33.4" y2="-786.1" gradientTransform="translate(0 -770.1) scale(1 -1)" gradientUnits="userSpaceOnUse">
      <stop offset="0" stop-color="#cce0f4"/>
      <stop offset="0" stop-color="#c2dcf2"/>
      <stop offset=".2" stop-color="#a9d2ee"/>
      <stop offset=".3" stop-color="#7fc2e7"/>
      <stop offset=".5" stop-color="#46abdd"/>
      <stop offset=".6" stop-color="#1e9cd7"/>
      <stop offset=".9" stop-color="#0075be"/>
      <stop offset="1" stop-color="#005b97"/>
    </linearGradient>
    <linearGradient id="linear-gradient14" x1="32.8" y1="-782.4" x2="32.8" y2="-782.4" gradientTransform="translate(0 -770.1) scale(1 -1)" gradientUnits="userSpaceOnUse">
      <stop offset="0" stop-color="#cce0f4"/>
      <stop offset="0" stop-color="#c2dcf2"/>
      <stop offset=".2" stop-color="#a9d2ee"/>
      <stop offset=".3" stop-color="#7fc2e7"/>
      <stop offset=".5" stop-color="#46abdd"/>
      <stop offset=".6" stop-color="#1e9cd7"/>
      <stop offset=".9" stop-color="#0075be"/>
      <stop offset="1" stop-color="#005b97"/>
    </linearGradient>
    <linearGradient id="linear-gradient15" x1="32.8" y1="-781.6" x2="41.8" y2="-781.6" gradientTransform="translate(0 -770.1) scale(1 -1)" gradientUnits="userSpaceOnUse">
      <stop offset="0" stop-color="#cce0f4"/>
      <stop offset="0" stop-color="#c2dcf2"/>
      <stop offset=".2" stop-color="#a9d2ee"/>
      <stop offset=".3" stop-color="#7fc2e7"/>
      <stop offset=".5" stop-color="#46abdd"/>
      <stop offset=".6" stop-color="#1e9cd7"/>
      <stop offset=".9" stop-color="#0075be"/>
      <stop offset="1" stop-color="#005b97"/>
    </linearGradient>
    <linearGradient id="linear-gradient16" x1="26.6" y1="-778.7" x2="33" y2="-778.7" gradientTransform="translate(0 -770.1) scale(1 -1)" gradientUnits="userSpaceOnUse">
      <stop offset="0" stop-color="#cce0f4"/>
      <stop offset="0" stop-color="#c2dcf2"/>
      <stop offset=".2" stop-color="#a9d2ee"/>
      <stop offset=".3" stop-color="#7fc2e7"/>
      <stop offset=".5" stop-color="#46abdd"/>
      <stop offset=".6" stop-color="#1e9cd7"/>
      <stop offset=".9" stop-color="#0075be"/>
      <stop offset="1" stop-color="#005b97"/>
    </linearGradient>
    <linearGradient id="linear-gradient17" x1="22.5" y1="-780.9" x2="41.1" y2="-780.9" gradientTransform="translate(0 -770.1) scale(1 -1)" gradientUnits="userSpaceOnUse">
      <stop offset="0" stop-color="#cce0f4"/>
      <stop offset="0" stop-color="#c2dcf2"/>
      <stop offset=".2" stop-color="#a9d2ee"/>
      <stop offset=".3" stop-color="#7fc2e7"/>
      <stop offset=".5" stop-color="#46abdd"/>
      <stop offset=".6" stop-color="#1e9cd7"/>
      <stop offset=".9" stop-color="#0075be"/>
      <stop offset="1" stop-color="#005b97"/>
    </linearGradient>
    <linearGradient id="linear-gradient18" x1="27.2" y1="-780.9" x2="28.5" y2="-780.9" gradientTransform="translate(0 -770.1) scale(1 -1)" gradientUnits="userSpaceOnUse">
      <stop offset="0" stop-color="#cce0f4"/>
      <stop offset="0" stop-color="#c2dcf2"/>
      <stop offset=".2" stop-color="#a9d2ee"/>
      <stop offset=".3" stop-color="#7fc2e7"/>
      <stop offset=".5" stop-color="#46abdd"/>
      <stop offset=".6" stop-color="#1e9cd7"/>
      <stop offset=".9" stop-color="#0075be"/>
      <stop offset="1" stop-color="#005b97"/>
    </linearGradient>
    <linearGradient id="linear-gradient19" x1="9.7" y1="-800.9" x2="16.2" y2="-800.9" gradientTransform="translate(0 -770.1) scale(1 -1)" gradientUnits="userSpaceOnUse">
      <stop offset="0" stop-color="#cce0f4"/>
      <stop offset="0" stop-color="#c2dcf2"/>
      <stop offset=".2" stop-color="#a9d2ee"/>
      <stop offset=".3" stop-color="#7fc2e7"/>
      <stop offset=".5" stop-color="#46abdd"/>
      <stop offset=".6" stop-color="#1e9cd7"/>
      <stop offset=".9" stop-color="#0075be"/>
      <stop offset="1" stop-color="#005b97"/>
    </linearGradient>
    <linearGradient id="linear-gradient20" x1="14.9" y1="-789.8" x2="31.8" y2="-789.8" gradientTransform="translate(0 -770.1) scale(1 -1)" gradientUnits="userSpaceOnUse">
      <stop offset="0" stop-color="#cce0f4"/>
      <stop offset="0" stop-color="#c2dcf2"/>
      <stop offset=".2" stop-color="#a9d2ee"/>
      <stop offset=".3" stop-color="#7fc2e7"/>
      <stop offset=".5" stop-color="#46abdd"/>
      <stop offset=".6" stop-color="#1e9cd7"/>
      <stop offset=".9" stop-color="#0075be"/>
      <stop offset="1" stop-color="#005b97"/>
    </linearGradient>
    <linearGradient id="linear-gradient21" x1="6.5" y1="-798.3" x2="18.5" y2="-798.3" gradientTransform="translate(0 -770.1) scale(1 -1)" gradientUnits="userSpaceOnUse">
      <stop offset="0" stop-color="#cce0f4"/>
      <stop offset="0" stop-color="#c2dcf2"/>
      <stop offset=".2" stop-color="#a9d2ee"/>
      <stop offset=".3" stop-color="#7fc2e7"/>
      <stop offset=".5" stop-color="#46abdd"/>
      <stop offset=".6" stop-color="#1e9cd7"/>
      <stop offset=".9" stop-color="#0075be"/>
      <stop offset="1" stop-color="#005b97"/>
    </linearGradient>
    <linearGradient id="linear-gradient22" x1="4.6" y1="-791" x2="24.3" y2="-791" gradientTransform="translate(0 -770.1) scale(1 -1)" gradientUnits="userSpaceOnUse">
      <stop offset="0" stop-color="#cce0f4"/>
      <stop offset="0" stop-color="#c2dcf2"/>
      <stop offset=".2" stop-color="#a9d2ee"/>
      <stop offset=".3" stop-color="#7fc2e7"/>
      <stop offset=".5" stop-color="#46abdd"/>
      <stop offset=".6" stop-color="#1e9cd7"/>
      <stop offset=".9" stop-color="#0075be"/>
      <stop offset="1" stop-color="#005b97"/>
    </linearGradient>
  </defs>
  <g>
    <path class="st22" d="M21.9,13.1s-.2-.5-1.4-1.3-5.3-4.4-6.8-5.8-3.6-3.5-4.1-3.9-1-.5-1.1-.2.1,2.4,2,4.4c1.9,2,5.8,4.8,11.4,6.9Z"/>
    <path class="st1" d="M21.7,15.7s-.8-1.7-2.6-2.7-4.9-2.7-6-3.4-5-3.3-6.1-4.1S2.6,2.4,1.9,2s-1.1-.4-1.2.2c0,.6-.1,2.7,3.5,5.4s9,4.5,10.7,5.2c2.6.8,4.4,1.4,5.1,1.7.9.4,1.7,1.2,1.7,1.2h0Z"/>
    <path class="st0" d="M21.1,16.1s-1-.8-3.5-1.6-6-1.9-8-2.8-5.8-2.8-7.6-4.4c-.1,1.4,0,4.1,4.4,6,4.5,1.9,9.5,2.2,11.9,2.4s2.8.4,2.8.4h0Z"/>
    <path class="st3" d="M20.2,16.8s-1.1-.2-3.6-.5c-4.9-.5-9.9-1.4-11.3-2.2,0,1.2.9,2,1.9,2.6.9.5,1.9.8,3,.9,4,.3,7.6-.4,10-.8h0Z"/>
    <path class="st8" d="M21.5,17.4s-2.1.4-3.9.7-6.2.7-7.6.7c.9,1.3,2,1.9,4.5,1.5.7-.1,1.5-.3,2.2-.5,3.7-1.3,4.9-2.4,4.9-2.4h0Z"/>
    <path class="st7" d="M21.7,18.1s-1,2.5-3.1,3.5-3.5.4-4.3,0c3.7-1.5,6.4-2.7,7.4-3.5Z"/>
    <path class="st4" d="M15.6,23.4s-.3.5-1.8.2-4.2-1.1-5.1-1.4-1.6-1.1-1.5-1.5,1.3,0,1.8.2c.5.2,1.9.9,3.6,1.5s1.9.8,2.5.8.6.1.6.2c0,0,0,0,0,0Z"/>
    <path class="st6" d="M13.9,24.2s-.8.5-2.2.5-4,.3-5.3,0-1.7-1-1.4-1.5,1.5-.7,3.1-.4c1.6.3,3.3.8,4.2.9s1.8.3,1.6.4h0Z"/>
    <path class="st5" d="M17.9,28.4s-1.7.4-3,1.7c-1.1,1.2-2.5,3.2-1.9,4,.7.7,1.8-.2,2.2-1.6s1.2-3.1,2.7-4.1Z"/>
    <path class="st2" d="M19.5,28.5s-1.7.5-2.8,2.4c-1,1.9-1.1,3.1-.1,3.1s1-1.7,1.1-2.1.4-2.4,1.8-3.4h0Z"/>
    <path class="st15" d="M20.3,28.7s-1.2.7-1.7,2.1c-.5,1.4,0,2.4.6,2.1s.3-1.4.3-2.1.3-1.7.7-2.1c0,0,0,0,0,0Z"/>
    <path class="st14" d="M27.6,21.8c.5-1.3.4-2.4.2-3v.2c0,1.7-1.3,4-3,5.6s-3.8,2.4-7.1,3.2c1.3.2,2.6.2,4.1,0,3.5-1.8,5.2-4.2,5.8-5.9h0Z"/>
    <path class="st11" d="M28.4,19.5c-.1-1.4,0-2.9,0-2.9,0,0-.4.5-.7.5,0,.5,0,1.1,0,1.7.1.6.2,1.7-.2,3-.6,1.7-2.3,4.1-5.8,5.9.5-.1,1-.2,1.6-.4,2.2-.7,3.8-2.1,4.9-3.8.6-.9.9-2,1-3-.3,0-.7-.2-.8-1h0Z"/>
    <path class="st10" d="M31.5,11.5c0,.2.5.2.3.3-.2,0-1.5.1-2.6,1.3-.8.8-1.3,2-1.5,2.9,0,.4,0,.8,0,1.2.3,0,.7-.5.7-.5,0,0-.1,1.5,0,2.9,0,.8.5,1,.8,1,0-.8.1-1.7.2-2.5.1-2,.5-3,1.3-4.2.8-1.1,2.6-2.4,2.6-2.4,0,0-1,0-1.9,0Z"/>
    <path class="st17" d="M32.8,12.3"/>
    <path class="st12" d="M41.1,11.3c-3.8-.9-6.3-.4-7.1-.3-.3.2-1,.2-1.1.6-.2.4,0,.6,0,.6,0,0,2-.8,3.7-1,1.8-.2,4.2.1,5.2.6-.1-.2-.4-.3-.7-.5h0Z"/>
    <path class="st13" d="M27.3,8c1.3.3,2.4,1,3,1.4.5.4,1.1.9,2.7.4-.8-.2-1.3-.4-2-1-.9-.7-1.9-1.7-4.2-1.7h-.1c-.2.3-.1.7.6.8h0s0,0,0,0Z"/>
    <path class="st16" d="M37.9,10.4c-1.2-.1-2.9-.1-4.1-.4-.3,0-.5-.1-.8-.2-1.6.5-2.2,0-2.7-.4-.6-.4-1.7-1.1-3-1.4-.8-.2-.8-.6-.6-.8-2.1.2-4.2,2-4.1,4.2,0,2.1.5,2.4,1.2,3,0-1.5.3-2.7,1.4-3.8,1.1-1.1,2.8-1.2,3.7-.7s1.3.8,2.4.8,3.1.2,2.8.4c0,0,0,0,0,0,.8-.2,3.3-.6,7.1.3-.7-.4-1.9-.7-3.2-.9Z"/>
    <path class="st9" d="M28,10.2c-.4-.1-.9.4-.7.8s.7.7,1.1.2,0-.9-.3-1Z"/>
    <path class="st18" d="M14.5,28.4c-.4.1-.8.3-1.1.5-1,.6-2.6,1.7-3.2,2.4-.7.9-.6,2.2.6,2.1,1.7-.2,2-2.1,3.2-3.4.6-.7,1.5-1.4,2.2-1.9,0,0,0,0,0,0-.6,0-1.3.1-1.3.1-.1,0-.3,0-.5.1h0Z"/>
    <path class="st21" d="M31.5,11.5c-.4,0-.8,0-1.2,0-1,0-.7.2-1.8.7s-1.9-.3-1.8-1.2c-2.4,0-2.7,2.9-2.7,3.5s1.2,1.5,1.2,3.3c0,2.2-1,3.8-1.5,4.5s-1.5,1.6-2.5,2.3c-1,.7-1.9,1.1-2.8,1.5s-1.2.4-1.8.7c-.6.4-1.5.6-1.5.6s0,.2-.1.9c0,0,.7,0,1.3-.1.7-.4,1.3-.8,1.8-.9,2.5-.9,4.8-1.7,6.4-3.1s2.5-3.5,2.6-4.8.2-4.4.4-4.5c0,0,.2.4.2,1,.2-.9.7-2.1,1.5-2.9,1.2-1.2,2.5-1.2,2.6-1.3.1,0-.3-.1-.3-.3h0Z"/>
    <path class="st20" d="M17.5,25.3s-2,1-3,1.3-4.3,1.3-5.9,1.9-2.5,1.4-1.9,2.4c.6.9,2.1.5,3.5-.6,1.3-1,3.1-2.3,5.2-3.5,1.3-.8,2.2-1.1,3.2-1.5-.4,0-.8,0-1.1.1,0,0,0,0,0,0h0Z"/>
    <path class="st19" d="M21.1,13.6s1.5,1.7,1.6,3.1c0,4.3-4.6,6.5-5.7,6.9-1,.5-2.9,1-3.5,1.3-.6.3-2.4.5-4.6.6s-4,.2-4.2,1,.9,1.9,2.6,1.3c1.8-.6,4.4-1.5,6.4-1.9,1.7-.4,3.3-.7,3.7-.8.3,0,.7-.1,1.1-.1.5-.2,1.1-.5,1.8-.8,2.6-1.7,3.7-3.5,4-6.1.3-2.6-3.2-4.6-3.2-4.6Z"/>
  </g>
  <g class="st23">
    <g class="st23">
      <g class="st23">
        <g class="st23">
          <path class="st24" d="M37.9,23.3v-10.3h1.9v4.5h4.4v-4.5h1.9v10.3h-1.9v-4.2h-4.4v4.2h-1.9Z"/>
          <path class="st24" d="M50.6,23.5c-.6,0-1.1-.1-1.5-.4s-.8-.6-1-1.1-.3-1-.3-1.6v-4.6h1.8v4.5c0,.3,0,.6.2.8.1.2.3.4.5.6.2.1.5.2.8.2s.6,0,.8-.2.4-.3.5-.6.2-.5.2-.9v-4.4h1.8v7.5h-1.7v-1.5.3c0,.5-.3.8-.7,1-.4.2-.9.3-1.4.3Z"/>
          <path class="st24" d="M56.1,23.3v-7.5h1.7v1.7l-.2-.3c.1-.6.4-1,.8-1.2.4-.3.9-.4,1.5-.4s1.2.2,1.6.5c.5.3.8.7.9,1.3h-.5c.2-.6.6-1,1-1.3s1-.5,1.6-.5,1,.1,1.4.4c.4.2.8.6,1,1s.4.9.4,1.5v4.9h-1.8v-4.4c0-.3,0-.6-.2-.9s-.3-.4-.5-.6c-.2-.1-.5-.2-.8-.2s-.5,0-.8.2c-.2.1-.4.3-.5.6s-.2.5-.2.9v4.4h-1.8v-4.4c0-.3,0-.6-.2-.9-.1-.2-.3-.4-.5-.6-.2-.1-.5-.2-.8-.2s-.5,0-.8.2c-.2.1-.4.3-.5.6s-.2.5-.2.9v4.4h-1.8Z"/>
          <path class="st24" d="M68.9,23.3v-7.5h1.7v1.7l-.2-.3c.1-.6.4-1,.8-1.2.4-.3.9-.4,1.5-.4s1.2.2,1.6.5c.5.3.8.7.9,1.3h-.5c.2-.6.6-1,1-1.3s1-.5,1.6-.5,1,.1,1.4.4c.4.2.8.6,1,1s.4.9.4,1.5v4.9h-1.8v-4.4c0-.3,0-.6-.2-.9s-.3-.4-.5-.6c-.2-.1-.5-.2-.8-.2s-.5,0-.8.2c-.2.1-.4.3-.5.6s-.2.5-.2.9v4.4h-1.8v-4.4c0-.3,0-.6-.2-.9s-.3-.4-.5-.6c-.2-.1-.5-.2-.8-.2s-.5,0-.8.2c-.2.1-.4.3-.5.6s-.2.5-.2.9v4.4h-1.8Z"/>
          <path class="st24" d="M81.8,14.9v-1.9h1.8v1.9h-1.8ZM81.8,23.3v-7.5h1.8v7.5h-1.8Z"/>
          <path class="st24" d="M85.2,23.3v-7.5h1.7v1.5-.3c0-.5.3-.8.7-1,.4-.2.9-.4,1.4-.4s1,.1,1.5.4c.4.2.8.6,1,1s.4.9.4,1.5v4.9h-1.8v-4.4c0-.3,0-.6-.2-.9-.1-.2-.3-.4-.5-.6-.2-.1-.5-.2-.8-.2s-.6,0-.8.2c-.2.1-.4.3-.5.6-.1.2-.2.5-.2.9v4.4h-1.8Z"/>
          <path class="st24" d="M97.1,26.3c-.6,0-1.1,0-1.6-.3s-.9-.4-1.2-.8c-.3-.3-.6-.7-.8-1.2l1.7-.6c.1.4.3.6.7.9.3.2.7.3,1.2.3s.7,0,1-.2c.3-.1.5-.3.7-.6.2-.3.2-.6.2-.9v-1.7l.3.4c-.3.5-.6.8-1,1-.4.2-.9.3-1.5.3s-1.3-.2-1.9-.5c-.6-.3-1-.8-1.3-1.3-.3-.6-.5-1.2-.5-1.9s.2-1.3.5-1.9c.3-.6.8-1,1.3-1.3.5-.3,1.2-.5,1.9-.5s1.1.1,1.5.4c.4.2.8.6,1.1,1l-.2.5v-1.7h1.7v7.2c0,.7-.2,1.2-.5,1.8-.3.5-.8.9-1.3,1.2-.5.3-1.2.4-1.9.4ZM97.1,21.3c.4,0,.7,0,1-.3s.5-.4.7-.7c.2-.3.2-.7.2-1.1s0-.7-.3-1c-.2-.3-.4-.5-.7-.7s-.6-.3-1-.3-.7,0-1,.3c-.3.2-.5.4-.7.7-.2.3-.3.7-.3,1s0,.7.3,1c.2.3.4.5.7.7.3.2.6.3,1,.3Z"/>
          <path class="st24" d="M104.3,23.3l3.6-10.3h2.4l3.6,10.3h-2.1l-.7-2.2h-4l-.7,2.2h-2ZM107.6,19.4h2.9l-1.7-5.1h.5l-1.7,5.1Z"/>
          <path class="st24" d="M118.2,26.3c-.6,0-1.1,0-1.6-.3s-.9-.4-1.2-.8c-.3-.3-.6-.7-.8-1.2l1.7-.6c.1.4.3.6.7.9.3.2.7.3,1.2.3s.7,0,1-.2c.3-.1.5-.3.7-.6.2-.3.2-.6.2-.9v-1.7l.3.4c-.3.5-.6.8-1,1-.4.2-.9.3-1.5.3s-1.3-.2-1.9-.5c-.6-.3-1-.8-1.3-1.3-.3-.6-.5-1.2-.5-1.9s.2-1.3.5-1.9c.3-.6.8-1,1.3-1.3.5-.3,1.2-.5,1.9-.5s1.1.1,1.5.4c.4.2.8.6,1.1,1l-.2.5v-1.7h1.7v7.2c0,.7-.2,1.2-.5,1.8-.3.5-.8.9-1.3,1.2-.5.3-1.2.4-1.9.4ZM118.1,21.3c.4,0,.7,0,1-.3s.5-.4.7-.7c.2-.3.2-.7.2-1.1s0-.7-.3-1c-.2-.3-.4-.5-.7-.7s-.6-.3-1-.3-.7,0-1,.3c-.3.2-.5.4-.7.7-.2.3-.3.7-.3,1s0,.7.3,1c.2.3.4.5.7.7.3.2.6.3,1,.3Z"/>
          <path class="st24" d="M127.1,23.5c-.8,0-1.5-.2-2-.5-.6-.4-1-.8-1.4-1.4-.3-.6-.5-1.3-.5-2s.2-1.4.5-2c.3-.6.8-1.1,1.3-1.4s1.2-.5,1.9-.5,1.1,0,1.6.3c.4.2.8.5,1.1.8.3.3.6.7.7,1.2.2.4.2.9.2,1.4s0,.3,0,.4c0,.1,0,.3,0,.4h-5.8v-1.4h4.8l-.9.7c0-.4,0-.8,0-1.1-.1-.3-.3-.6-.6-.8-.3-.2-.6-.3-1-.3s-.7,0-1,.3c-.3.2-.5.5-.7.8s-.2.8-.2,1.3c0,.5,0,.9.2,1.2.2.4.4.6.7.8.3.2.7.3,1.1.3s.8,0,1.1-.3.5-.4.7-.7l1.5.7c-.1.4-.4.7-.7,1-.3.3-.7.5-1.1.7s-.9.2-1.4.2Z"/>
          <path class="st24" d="M132,23.3v-7.5h1.7v1.5-.3c0-.5.3-.8.7-1,.4-.2.9-.4,1.4-.4s1,.1,1.5.4c.4.2.8.6,1,1s.4.9.4,1.5v4.9h-1.8v-4.4c0-.3,0-.6-.2-.9-.1-.2-.3-.4-.5-.6-.2-.1-.5-.2-.8-.2s-.6,0-.8.2c-.2.1-.4.3-.5.6-.1.2-.2.5-.2.9v4.4h-1.8Z"/>
          <path class="st24" d="M143.7,23.4c-.9,0-1.5-.2-2-.7-.5-.5-.7-1.1-.7-2v-3.3h-1.3v-1.6h.1c.4,0,.7,0,.9-.3.2-.2.3-.5.3-.8v-.6h1.8v1.7h1.7v1.6h-1.7v3.2c0,.2,0,.5.1.6s.2.3.4.4c.2,0,.4.1.7.1s.1,0,.2,0c0,0,.2,0,.3,0v1.6c-.1,0-.3,0-.4,0s-.3,0-.5,0Z"/>
          <path class="st24" d="M147.8,23.3l3.6-10.3h2.4l3.6,10.3h-2.1l-.7-2.2h-4l-.7,2.2h-2ZM151.1,19.4h2.9l-1.7-5.1h.5l-1.7,5.1Z"/>
          <path class="st24" d="M158.5,23.3v-10.3h1.9v10.3h-1.9Z"/>
        </g>
      </g>
    </g>
  </g>
</svg>